# This file uses meters as units for non-parametric coordinates.

mtllib HillsTile02.mtl
g default
v -12.048157 2.538960 16.056892
v 12.048161 2.538960 16.056892
v 12.048161 -0.000001 16.056892
v -12.048153 0.000000 16.056892
v -12.048161 2.538960 5.352298
v 12.048153 2.538960 5.352298
v -12.048161 0.000000 5.352298
v -12.048153 2.538960 -5.352298
v 12.048161 2.538960 -5.352298
v -12.048161 0.000000 -5.352297
v -12.048161 0.000000 -16.056892
v -12.048161 12.078579 -16.056892
v -12.048157 12.078579 -5.352297
v 12.048153 19.620173 -16.056892
v 12.048153 19.620173 -5.352297
vn 0.000000 0.000000 1.000000
vn 0.000000 0.000000 1.000000
vn 0.000000 0.000000 1.000000
vn 0.000000 0.000000 1.000000
vn 0.000000 0.000000 1.000000
vn 0.000000 0.000000 1.000000
vn 0.000000 1.000000 0.000000
vn 0.000000 1.000000 0.000000
vn 0.000000 1.000000 0.000000
vn 0.000000 1.000000 0.000000
vn 0.000000 1.000000 0.000000
vn 0.000000 1.000000 0.000000
vn -1.000000 -0.000001 0.000001
vn -1.000000 -0.000001 0.000001
vn -1.000000 -0.000001 0.000001
vn -1.000000 -0.000001 0.000001
vn 0.000000 1.000000 0.000000
vn 0.000000 1.000000 0.000000
vn 0.000000 1.000000 0.000000
vn 0.000000 1.000000 0.000000
vn 0.000000 1.000000 0.000000
vn 0.000000 1.000000 0.000000
vn -1.000000 0.000002 -0.000000
vn -1.000000 0.000002 -0.000000
vn -1.000000 0.000002 -0.000000
vn -1.000000 0.000002 -0.000000
vn 0.000000 1.000000 0.000000
vn 0.000000 1.000000 0.000000
vn 0.000000 1.000000 0.000000
vn 0.000000 1.000000 0.000000
vn -1.000000 0.000000 0.000000
vn -1.000000 0.000000 0.000000
vn 0.000000 1.000000 0.000000
vn 0.000000 1.000000 0.000000
vn 0.000000 -0.000000 1.000000
vn 0.000000 -0.000000 1.000000
vn 0.000000 -0.000000 1.000000
vn 0.000000 -0.000000 1.000000
vn 0.000000 -0.000000 1.000000
vn 0.000000 -0.000000 1.000000
s off
g HillsTile02
usemtl grass_Plane1SG1
f 2//1 1//2 4//3
f 4//4 3//5 2//6
f 6//7 5//8 1//9
f 1//10 2//11 6//12
f 1//13 5//14 7//15 4//16
f 9//17 8//18 5//19
f 5//20 6//21 9//22
f 5//23 8//24 10//25 7//26
f 14//27 12//28 13//29 15//30
f 11//31 10//32 13//33 12//34
f 15//35 13//36 8//37
f 8//38 9//39 15//40
