# This file uses meters as units for non-parametric coordinates.

mtllib HillsTile01.mtl
g default
v -24.096321 2.538960 -5.352297
v 0.000000 2.538960 -5.352297
v 0.000004 2.538960 5.352297
v -24.096317 2.538960 5.352297
v -24.096321 0.000000 -5.352297
v -24.096317 0.000000 5.352297
v -24.096325 2.538960 -16.056892
v -0.000006 2.538960 -16.056892
v -24.096325 0.000000 -16.056892
v 0.000007 2.538960 16.056892
v -24.096312 2.538960 16.056892
v -24.096310 0.000000 16.056892
v 24.096321 2.538960 5.352298
v 24.096325 2.538960 16.056892
v 24.096321 2.538960 -5.352296
v 24.096321 8.775547 -16.056892
v 24.096321 8.775547 -5.352297
v 24.096325 -0.000001 16.056892
v 0.000010 -0.000000 16.056892
vt 0.000000 0.000000
vt 1.000000 0.000000
vt 1.000000 1.000000
vt 0.000000 1.000000
vt 0.000000 0.000000
vt 1.000000 0.000000
vt 1.000000 1.000000
vt 0.000000 1.000000
vt 0.000000 0.000000
vt 1.000000 0.000000
vt 1.000000 1.000000
vt 0.000000 1.000000
vn 0.000000 1.000000 0.000000
vn 0.000000 1.000000 0.000000
vn 0.000000 1.000000 0.000000
vn 0.000000 1.000000 0.000000
vn 0.000000 1.000000 0.000000
vn 0.000000 1.000000 0.000000
vn -1.000000 0.000000 0.000000
vn -1.000000 0.000000 0.000000
vn -1.000000 0.000000 0.000000
vn -1.000000 0.000000 0.000000
vn 0.000000 1.000000 0.000000
vn 0.000000 1.000000 0.000000
vn 0.000000 1.000000 0.000000
vn 0.000000 1.000000 0.000000
vn 0.000000 1.000000 0.000000
vn 0.000000 1.000000 0.000000
vn -1.000000 0.000000 0.000000
vn -1.000000 0.000000 0.000000
vn -1.000000 0.000000 0.000000
vn -1.000000 0.000000 0.000000
vn 0.000000 1.000000 0.000000
vn 0.000000 1.000000 0.000000
vn 0.000000 1.000000 0.000000
vn 0.000000 1.000000 0.000000
vn 0.000000 1.000000 0.000000
vn 0.000000 1.000000 0.000000
vn -1.000000 0.000000 0.000001
vn -1.000000 0.000000 0.000001
vn -1.000000 0.000000 0.000001
vn -1.000000 0.000000 0.000001
vn 0.000000 1.000000 0.000000
vn 0.000000 1.000000 0.000000
vn 0.000000 1.000000 0.000000
vn 0.000000 1.000000 0.000000
vn 0.000000 1.000000 0.000000
vn 0.000000 1.000000 0.000000
vn 0.000000 1.000000 0.000000
vn 0.000000 1.000000 0.000000
vn 0.000000 1.000000 0.000000
vn 0.000000 1.000000 0.000000
vn 0.000000 1.000000 0.000000
vn 0.000000 1.000000 0.000000
vn -0.258819 0.965926 0.000000
vn -0.258819 0.965926 0.000000
vn -0.258819 0.965926 0.000000
vn -0.258819 0.965926 0.000000
vn -0.258819 0.965926 0.000000
vn -0.258819 0.965926 0.000000
vn -0.258819 0.965926 0.000000
vn -0.258819 0.965926 0.000000
vn -0.258819 0.965926 0.000000
vn -0.258819 0.965926 0.000000
vn -0.258819 0.965926 0.000000
vn -0.258819 0.965926 0.000000
vn 0.000000 0.000000 1.000000
vn 0.000000 0.000000 1.000000
vn 0.000000 0.000000 1.000000
vn 0.000000 0.000000 1.000000
vn 0.000000 0.000000 1.000000
vn 0.000000 0.000000 1.000000
vn 0.000000 0.000000 1.000000
vn 0.000000 0.000000 1.000000
vn 0.000000 0.000000 1.000000
vn 0.000000 0.000000 1.000000
vn 0.000000 0.000000 1.000000
vn 0.000000 0.000000 1.000000
s off
g HillsTile01
usemtl grass_Plane1SG1
f 2//1 1//2 4//3
f 4//4 3//5 2//6
f 4/1/7 1/2/8 5/3/9 6/4/10
f 8//11 7//12 1//13
f 1//14 2//15 8//16
f 1/5/17 7/6/18 9/7/19 5/8/20
f 3//21 4//22 11//23
f 11//24 10//25 3//26
f 11/9/27 4/10/28 6/11/29 12/12/30
f 13//31 3//32 10//33
f 10//34 14//35 13//36
f 15//37 2//38 3//39
f 3//40 13//41 15//42
f 16//43 8//44 2//45
f 2//46 17//47 16//48
f 17//49 2//50 3//51
f 3//52 15//53 17//54
f 14//55 10//56 19//57
f 19//58 18//59 14//60
f 10//61 11//62 12//63
f 12//64 19//65 10//66
