# This file uses meters as units for non-parametric coordinates.

mtllib HillsTile03.mtl
g default
v -12.048157 2.538960 16.056892
v 12.048157 2.538960 16.056892
v 12.048157 -0.000001 16.056892
v -12.048157 0.000000 16.056892
v -12.048157 2.538960 5.352298
v 12.048157 2.538960 5.352298
v -12.048157 0.000000 5.352298
v -12.048157 2.538960 -5.352297
v 12.048149 2.538960 -5.352297
v -12.048157 0.000000 -5.352297
v -12.048157 2.538960 -16.056892
v 12.048149 9.424421 -16.056892
v -12.048164 21.433403 -16.056892
v -12.048157 21.433403 -5.352297
v 12.048149 9.424421 -5.352297
v 12.048149 25.232059 -16.056892
v 12.048149 25.232059 -5.352297
v -12.048157 9.424415 -5.352297
v -5.786423 9.424414 -5.352297
v -5.786423 2.538960 -5.352297
v 12.048149 2.538960 -16.056892
v -12.048164 0.000000 -16.056892
vn 0.000000 0.000000 1.000000
vn 0.000000 0.000000 1.000000
vn 0.000000 0.000000 1.000000
vn 0.000000 0.000000 1.000000
vn 0.000000 0.000000 1.000000
vn 0.000000 0.000000 1.000000
vn 0.000000 1.000000 0.000000
vn 0.000000 1.000000 0.000000
vn 0.000000 1.000000 0.000000
vn 0.000000 1.000000 0.000000
vn 0.000000 1.000000 0.000000
vn 0.000000 1.000000 0.000000
vn -1.000000 0.000000 0.000000
vn -1.000000 0.000000 0.000000
vn -1.000000 0.000000 0.000000
vn -1.000000 0.000000 0.000000
vn 0.000000 1.000000 0.000000
vn 0.000000 1.000000 0.000000
vn 0.000000 1.000000 0.000000
vn 0.000000 1.000000 0.000000
vn 0.000000 1.000000 0.000000
vn 0.000000 1.000000 0.000000
vn -1.000000 0.000000 0.000000
vn -1.000000 0.000000 0.000000
vn -1.000000 0.000000 0.000000
vn -1.000000 0.000000 0.000000
vn 0.000000 1.000000 0.000000
vn 0.000000 1.000000 0.000000
vn 0.000000 1.000000 0.000000
vn 0.000000 1.000000 0.000000
vn -1.000000 -0.000000 0.000000
vn -1.000000 -0.000000 0.000000
vn 0.000000 1.000000 0.000000
vn 0.000000 1.000000 0.000000
vn 1.000000 0.000000 0.000000
vn 1.000000 0.000000 0.000000
vn 0.000000 1.000000 0.000000
vn 0.000000 1.000000 0.000000
vn 0.000000 -0.000000 1.000000
vn 0.000000 -0.000000 1.000000
vn 0.000000 -0.000000 1.000000
vn 0.000000 -0.000000 1.000000
vn 0.000000 -0.000000 1.000000
vn 0.000000 -0.000000 1.000000
vn 0.000000 0.000000 1.000000
vn 0.000000 0.000000 1.000000
vn 0.000000 0.000000 1.000000
vn 0.000000 0.000000 1.000000
vn 0.000000 0.000000 1.000000
vn 0.000000 0.000000 1.000000
vn 0.000000 1.000000 0.000000
vn 0.000000 1.000000 0.000000
vn 0.000000 1.000000 0.000000
vn 0.000000 1.000000 0.000000
vn 0.000000 1.000000 0.000000
vn 0.000000 1.000000 0.000000
vn -1.000000 0.000002 0.000000
vn -1.000000 0.000002 0.000000
vn -1.000000 0.000002 0.000000
vn -1.000000 0.000002 0.000000
s off
g HillsTile03
usemtl grass_Plane1SG1
f 2//1 1//2 4//3
f 4//4 3//5 2//6
f 6//7 5//8 1//9
f 1//10 2//11 6//12
f 1//13 5//14 7//15 4//16
f 9//17 8//18 5//19
f 5//20 6//21 9//22
f 5//23 8//24 10//25 7//26
f 16//27 13//28 14//29 17//30
f 11//31 8//32 14//33 13//34
f 15//35 12//36 16//37 17//38
f 19//39 18//40 8//41
f 8//42 20//43 19//44
f 14//45 18//46 15//47
f 15//48 17//49 14//50
f 21//51 11//52 8//53
f 8//54 9//55 21//56
f 8//57 11//58 22//59 10//60
