# This file uses centimeters as units for non-parametric coordinates.

mtllib baconObj.mtl
g default
v -2.042693 -0.251162 1.416596
v -1.386462 -0.000846 2.249440
v -2.054069 0.053599 1.402158
v -1.397841 0.303915 2.235002
v 2.112897 0.026704 -1.917953
v 2.768968 0.281217 -1.085311
v 2.124465 -0.277983 -1.903274
v 2.780536 -0.023470 -1.070630
v 1.438169 0.143602 -1.698203
v 1.438169 -0.163321 -1.698203
v 2.099053 -0.163321 -0.859450
v 2.099053 0.143602 -0.859450
v 1.087396 0.143602 -1.067311
v 1.087396 -0.163321 -1.067311
v 1.748281 -0.163321 -0.228559
v 1.748281 0.143602 -0.228559
v 0.391953 0.143602 -0.873853
v 0.391953 -0.163321 -0.873853
v 1.052838 -0.163321 -0.035100
v 1.052838 0.143602 -0.035100
v 0.041184 0.143602 -0.242959
v 0.041184 -0.163321 -0.242959
v 0.702069 -0.163321 0.595792
v 0.702069 0.143602 0.595792
v -0.654258 0.143602 -0.049500
v -0.654258 -0.163321 -0.049500
v 0.006627 -0.163321 0.789252
v 0.006627 0.143602 0.789252
v -1.005031 0.143602 0.581393
v -1.005031 -0.163321 0.581393
v -0.344146 -0.163321 1.420144
v -0.344146 0.143602 1.420144
v -1.700473 0.143602 0.774854
v -1.700473 -0.163321 0.774854
v -1.039584 -0.163321 1.613605
v -1.039584 0.143602 1.613605
v -2.769092 -0.605196 -0.083890
v -2.386592 -0.351737 0.912280
v -2.780536 -0.300636 -0.099319
v -2.398044 -0.047177 0.896848
v 2.061074 0.276544 -2.249440
v 2.443572 0.530003 -1.253274
v 2.072522 -0.028017 -2.234012
v 2.455018 0.225442 -1.237842
v 1.364873 0.322913 -2.217675
v 1.376317 0.018352 -2.202247
v 1.758817 0.271811 -1.206077
v 1.747369 0.576372 -1.221505
v 0.858123 0.351737 -1.692510
v 0.869567 0.047177 -1.677081
v 1.252063 0.300636 -0.680913
v 1.240617 0.605196 -0.696343
v 0.151883 0.248375 -1.686881
v 0.163329 -0.056185 -1.671451
v 0.545827 0.197273 -0.675281
v 0.534383 0.501834 -0.690711
v -0.354869 0.277199 -1.161717
v -0.343421 -0.027361 -1.146285
v 0.039077 0.226098 -0.150119
v 0.027627 0.530659 -0.165549
v -1.061107 0.173837 -1.156085
v -1.049663 -0.130723 -1.140653
v -0.667163 0.122736 -0.144486
v -0.678607 0.427296 -0.159917
v -1.567859 0.202661 -0.630919
v -1.556411 -0.101899 -0.615491
v -1.173911 0.151560 0.380677
v -1.185363 0.456121 0.365249
v -2.274096 0.099299 -0.625289
v -2.262645 -0.205261 -0.609859
v -1.880153 0.048198 0.386310
v -1.891597 0.352758 0.370877
vt 0.187033 0.711696
vt 0.036461 0.710211
vt 0.050850 0.697746
vt 0.179106 0.694372
vt 0.082046 0.621116
vt 0.209341 0.619311
vt 0.176318 0.057939
vt 0.048583 0.057508
vt 0.033657 0.046069
vt 0.184167 0.040005
vt 0.209341 0.619311
vt 0.082046 0.621116
vt 0.050850 0.697746
vt 0.179106 0.694372
vt 0.062997 0.622482
vt 0.229647 0.621371
vt 0.224922 0.129727
vt 0.204705 0.131494
vt 0.176318 0.057939
vt 0.048583 0.057508
vt 0.077465 0.133450
vt 0.204705 0.131494
vt 0.077465 0.133450
vt 0.058374 0.132643
vt 0.192506 0.212565
vt 0.172781 0.212597
vt 0.046802 0.214202
vt 0.172781 0.212597
vt 0.046802 0.214202
vt 0.027027 0.214689
vt 0.225720 0.293765
vt 0.205836 0.293698
vt 0.079861 0.295559
vt 0.205836 0.293698
vt 0.079861 0.295559
vt 0.060336 0.296053
vt 0.194055 0.375963
vt 0.174386 0.375964
vt 0.048416 0.377556
vt 0.174386 0.375964
vt 0.048416 0.377556
vt 0.028666 0.378104
vt 0.227308 0.457206
vt 0.207426 0.457135
vt 0.081449 0.458993
vt 0.207426 0.457135
vt 0.081449 0.458993
vt 0.061924 0.459491
vt 0.195652 0.539399
vt 0.175987 0.539291
vt 0.049969 0.540898
vt 0.175987 0.539291
vt 0.049969 0.540898
vt 0.030232 0.541507
vt 0.249681 0.287468
vt 0.399659 0.261876
vt 0.391036 0.280578
vt 0.261643 0.305239
vt 0.389990 0.372395
vt 0.249576 0.389650
vt 0.164147 0.899472
vt 0.277455 0.963713
vt 0.280783 0.983351
vt 0.147052 0.911907
vt 0.249576 0.389650
vt 0.389990 0.372395
vt 0.391036 0.280578
vt 0.261643 0.305239
vt 0.410547 0.365436
vt 0.225141 0.389356
vt 0.152989 0.811924
vt 0.173070 0.819997
vt 0.164147 0.899472
vt 0.277455 0.963713
vt 0.305207 0.882887
vt 0.173070 0.819997
vt 0.305207 0.882887
vt 0.322918 0.894380
vt 0.218960 0.754268
vt 0.238611 0.762636
vt 0.369463 0.815078
vt 0.238611 0.762636
vt 0.369463 0.815078
vt 0.388150 0.824280
vt 0.219270 0.673616
vt 0.238954 0.681393
vt 0.375440 0.721965
vt 0.238954 0.681393
vt 0.375440 0.721965
vt 0.395955 0.727952
vt 0.267988 0.614129
vt 0.289644 0.617513
vt 0.423390 0.639578
vt 0.289644 0.617513
vt 0.423390 0.639578
vt 0.443736 0.643854
vt 0.241783 0.541103
vt 0.262633 0.541521
vt 0.405225 0.546695
vt 0.262633 0.541521
vt 0.405225 0.546695
vt 0.426289 0.547780
vt 0.267522 0.465496
vt 0.289483 0.464619
vt 0.429593 0.455833
vt 0.289483 0.464619
vt 0.429593 0.455833
vt 0.450318 0.454795
vn -0.358956 -0.916977 0.174077
vn -0.051068 -0.786946 0.614905
vn -0.165413 0.907413 0.386317
vn -0.544087 0.838659 0.024912
vn 0.121694 0.982723 0.139447
vn -0.237691 0.918999 -0.314553
vn 0.165959 0.823452 -0.542572
vn 0.427377 0.899426 -0.091548
vn 0.592123 -0.799957 0.097258
vn 0.232472 -0.928200 -0.290519
vn -0.206391 -0.946458 -0.248232
vn 0.156072 -0.964644 0.212377
vn -0.208765 -0.947494 -0.242225
vn -0.240670 0.921948 -0.303462
vn 0.162895 -0.963598 0.212002
vn 0.124465 0.982726 0.136960
vn -0.138468 -0.974651 -0.175735
vn -0.138468 0.974651 -0.175735
vn 0.222022 -0.933439 0.281776
vn 0.222022 0.933439 0.281776
vn -0.222023 -0.933439 -0.281777
vn -0.222023 0.933439 -0.281777
vn 0.138468 -0.974651 0.175735
vn 0.138468 0.974651 0.175735
vn -0.138469 -0.974651 -0.175735
vn -0.138468 0.974651 -0.175735
vn 0.222023 -0.933439 0.281776
vn 0.222023 0.933439 0.281776
vn -0.222023 -0.933439 -0.281777
vn -0.222023 0.933439 -0.281777
vn 0.138469 -0.974651 0.175735
vn 0.138469 0.974650 0.175736
vn -0.138469 -0.974650 -0.175736
vn -0.138469 0.974650 -0.175736
vn 0.222023 -0.933439 0.281776
vn 0.222023 0.933439 0.281776
vn 0.276410 -0.960438 -0.033991
vn 0.315566 -0.889308 0.330983
vn -0.596829 0.700862 0.390624
vn -0.824931 0.564147 -0.035014
vn -0.348761 0.931306 0.105047
vn -0.469288 0.824639 -0.315816
vn 0.345450 0.766389 -0.541583
vn 0.471020 0.880219 -0.057918
vn 0.470610 -0.819029 0.328205
vn 0.249824 -0.964646 -0.083938
vn 0.258224 -0.929603 -0.262982
vn 0.475933 -0.834253 0.278405
vn -0.110379 -0.988344 -0.104848
vn -0.175069 0.852060 -0.493299
vn 0.134795 -0.900835 0.412708
vn 0.048220 0.998369 -0.030560
vn 0.055044 -0.998276 -0.020366
vn -0.217215 0.905874 -0.363607
vn 0.260228 -0.834102 0.486369
vn 0.002646 0.990815 0.135196
vn -0.002646 -0.990815 -0.135198
vn -0.260227 0.834102 -0.486369
vn 0.217216 -0.905873 0.363609
vn -0.055044 0.998276 0.020365
vn 0.055044 -0.998276 -0.020365
vn -0.217216 0.905873 -0.363610
vn 0.260230 -0.834101 0.486370
vn 0.002645 0.990815 0.135196
vn -0.002648 -0.990815 -0.135196
vn -0.260229 0.834101 -0.486371
vn 0.217216 -0.905873 0.363609
vn -0.055043 0.998276 0.020367
vn 0.055044 -0.998276 -0.020365
vn -0.217214 0.905874 -0.363608
vn 0.260230 -0.834101 0.486369
vn 0.002646 0.990815 0.135198
s 1
g bacon
usemtl baconAndEggsSG1
f 1/1/1 2/2/2 4/3/3 3/4/4
f 3/4/4 4/3/3 36/5/5 33/6/6
f 5/7/7 6/8/8 8/9/9 7/10/10
f 34/11/11 35/12/12 2/13/2 1/14/1
f 2/2/2 35/15/12 36/5/5 4/3/3
f 34/16/11 1/1/1 3/4/4 33/6/6
f 7/10/10 10/17/13 9/18/14 5/7/7
f 7/19/10 8/20/9 11/21/15 10/22/13
f 12/23/16 11/24/15 8/9/9 6/8/8
f 9/18/14 12/23/16 6/8/8 5/7/7
f 10/17/13 14/25/17 13/26/18 9/18/14
f 10/22/13 11/21/15 15/27/19 14/28/17
f 16/29/20 15/30/19 11/24/15 12/23/16
f 13/26/18 16/29/20 12/23/16 9/18/14
f 14/25/17 18/31/21 17/32/22 13/26/18
f 14/28/17 15/27/19 19/33/23 18/34/21
f 20/35/24 19/36/23 15/30/19 16/29/20
f 17/32/22 20/35/24 16/29/20 13/26/18
f 18/31/21 22/37/25 21/38/26 17/32/22
f 18/34/21 19/33/23 23/39/27 22/40/25
f 24/41/28 23/42/27 19/36/23 20/35/24
f 21/38/26 24/41/28 20/35/24 17/32/22
f 22/37/25 26/43/29 25/44/30 21/38/26
f 22/40/25 23/39/27 27/45/31 26/46/29
f 28/47/32 27/48/31 23/42/27 24/41/28
f 25/44/30 28/47/32 24/41/28 21/38/26
f 26/43/29 30/49/33 29/50/34 25/44/30
f 26/46/29 27/45/31 31/51/35 30/52/33
f 32/53/36 31/54/35 27/48/31 28/47/32
f 29/50/34 32/53/36 28/47/32 25/44/30
f 30/49/33 34/16/11 33/6/6 29/50/34
f 30/52/33 31/51/35 35/12/12 34/11/11
f 36/5/5 35/15/12 31/54/35 32/53/36
f 33/6/6 36/5/5 32/53/36 29/50/34
s 3
f 37/55/37 38/56/38 40/57/39 39/58/40
f 39/58/40 40/57/39 72/59/41 69/60/42
f 41/61/43 42/62/44 44/63/45 43/64/46
f 70/65/47 71/66/48 38/67/38 37/68/37
f 38/56/38 71/69/48 72/59/41 40/57/39
f 70/70/47 37/55/37 39/58/40 69/60/42
f 43/64/46 46/71/49 45/72/50 41/61/43
f 43/73/46 44/74/45 47/75/51 46/76/49
f 48/77/52 47/78/51 44/63/45 42/62/44
f 45/72/50 48/77/52 42/62/44 41/61/43
f 46/71/49 50/79/53 49/80/54 45/72/50
f 46/76/49 47/75/51 51/81/55 50/82/53
f 52/83/56 51/84/55 47/78/51 48/77/52
f 49/80/54 52/83/56 48/77/52 45/72/50
f 50/79/53 54/85/57 53/86/58 49/80/54
f 50/82/53 51/81/55 55/87/59 54/88/57
f 56/89/60 55/90/59 51/84/55 52/83/56
f 53/86/58 56/89/60 52/83/56 49/80/54
f 54/85/57 58/91/61 57/92/62 53/86/58
f 54/88/57 55/87/59 59/93/63 58/94/61
f 60/95/64 59/96/63 55/90/59 56/89/60
f 57/92/62 60/95/64 56/89/60 53/86/58
f 58/91/61 62/97/65 61/98/66 57/92/62
f 58/94/61 59/93/63 63/99/67 62/100/65
f 64/101/68 63/102/67 59/96/63 60/95/64
f 61/98/66 64/101/68 60/95/64 57/92/62
f 62/97/65 66/103/69 65/104/70 61/98/66
f 62/100/65 63/99/67 67/105/71 66/106/69
f 68/107/72 67/108/71 63/102/67 64/101/68
f 65/104/70 68/107/72 64/101/68 61/98/66
f 66/103/69 70/70/47 69/60/42 65/104/70
f 66/106/69 67/105/71 71/66/48 70/65/47
f 72/59/41 71/69/48 67/108/71 68/107/72
f 69/60/42 72/59/41 68/107/72 65/104/70
