# This file uses centimeters as units for non-parametric coordinates.

mtllib BridgeRoad.mtl
g default
v -3.000004 3.000000 -10.000000
v -3.000000 -1.000000 -10.000000
v -3.000004 3.000000 -6.325051
v -3.000001 -1.000000 -6.325051
v -2.750003 -1.000000 -6.901258
v -2.750006 3.000000 -6.325051
v -2.750006 3.000000 -8.162525
v -3.000004 3.000000 -8.162525
v -2.750006 3.422458 -6.325051
v -3.000004 3.422458 -6.325051
v -2.750006 3.422458 -7.610133
v -3.000004 3.422458 -7.610133
v -3.000004 3.000000 -5.960318
v -3.000001 -1.000000 -5.960318
v -2.750003 -1.000000 -5.960318
v -2.750006 3.000000 -5.960318
v -2.750006 3.175328 -5.960318
v -3.000004 3.175328 -5.960318
v 3.000004 3.000000 10.000000
v -2.999996 3.000000 10.000000
v 3.000004 3.000000 -10.000000
v 3.000004 -1.000000 10.000000
v -2.999996 -1.000000 10.000000
v 3.000000 -1.000000 -10.000000
v 3.000004 3.000000 -6.325051
v 3.000001 -1.000000 -6.325051
v -2.999998 -1.000000 6.325053
v -2.999996 3.000000 6.325053
v 3.000004 3.000000 6.325053
v 3.000003 -1.000000 6.325053
v 3.000003 0.333333 6.325053
v -2.999997 0.333333 6.325053
v 3.000003 2.500000 6.325053
v -2.999997 2.500000 6.325053
v 3.000003 2.500000 5.735023
v -2.999997 2.500000 5.735023
v -2.999997 1.416667 5.735023
v 3.000003 1.416667 5.735023
v 2.750003 -1.000000 -6.901258
v 2.750006 3.000000 -6.325051
v 2.750006 3.000000 -8.162525
v 3.000004 3.000000 -8.162525
v 2.750006 3.422458 -6.325051
v 3.000004 3.422458 -6.325051
v 2.750006 3.422458 -7.610133
v 3.000004 3.422458 -7.610133
v 3.000004 3.000000 -5.960318
v 3.000001 -1.000000 -5.960318
v 2.750003 -1.000000 -5.960318
v 2.750006 3.000000 -5.960318
v 2.750006 3.175328 -5.960318
v 3.000004 3.175328 -5.960318
vt 0.990022 0.621256
vt 0.984296 0.621256
vt 0.984296 0.591825
vt 0.990021 0.591825
vt 0.990022 0.629610
vt 0.984296 0.629610
vt 0.984296 0.579173
vt 0.990021 0.579173
vt 0.990022 0.537090
vt 0.858330 0.579173
vt 0.852605 0.537090
vt 0.984296 0.621256
vt 0.858330 0.621256
vt 0.852605 0.579173
vt 0.858330 0.591825
vt 0.852605 0.591825
vt 0.852605 0.621257
vt 0.858330 0.621256
vt 0.858330 0.629610
vt 0.852605 0.629610
vt 0.768026 0.535745
vt 0.726376 0.626415
vt 0.809677 0.626415
vt 0.809677 0.535745
vt 0.726376 0.535745
vt 0.817945 0.626415
vt 0.817945 0.535745
vt 0.809677 0.526169
vt 0.780548 0.526169
vt 0.817945 0.531771
vt 0.772668 0.341780
vt 0.751118 0.250168
vt 0.823612 0.626415
vt 0.823612 0.535745
vt 0.823612 0.531771
vt 0.817945 0.531771
vt 0.983883 0.631567
vt 0.983883 0.723178
vt 0.857917 0.723178
vt 0.857917 0.631567
vt 0.853314 0.441105
vt 0.990731 0.441105
vt 0.990731 0.532716
vt 0.853314 0.532716
vt 0.793077 0.238828
vt 0.750993 0.238828
vt 0.763645 0.229153
vt 0.793077 0.229153
vt 0.801430 0.234812
vt 0.801430 0.238828
vt 0.779880 0.330439
vt 0.801430 0.330439
vt 0.808003 0.846834
vt 0.892170 0.846834
vt 0.892170 0.984251
vt 0.808004 0.984251
vt 0.996537 0.742252
vt 0.996537 0.826419
vt 0.985085 0.826419
vt 0.935463 0.826419
vt 0.904926 0.742252
vt 0.985085 0.839932
vt 0.960274 0.839932
vt 0.904926 0.826419
vt 0.894981 0.753261
vt 0.894981 0.837428
vt 0.883530 0.753261
vt 0.803370 0.837428
vt 0.833907 0.753261
vt 0.803370 0.753261
vt 0.858719 0.739748
vt 0.883530 0.739748
vt 0.780588 0.644102
vt 0.738504 0.644102
vt 0.738504 0.735714
vt 0.822671 0.735714
vt 0.767936 0.634427
vt 0.738504 0.634427
vt 0.730151 0.644102
vt 0.730151 0.735714
vt 0.822671 0.644102
vt 0.730151 0.640087
vt 0.772668 0.250168
vt 0.724425 0.644102
vt 0.724425 0.735714
vt 0.772668 0.345795
vt 0.730151 0.640087
vt 0.724425 0.640087
vt 0.903622 0.984251
vt 0.722231 0.341779
vt 0.734882 0.351455
vt 0.903622 0.846834
vt 0.997295 0.846834
vt 0.997295 0.984251
vt 0.966758 0.984251
vt 0.966758 0.846834
vt 0.941946 0.984251
vt 0.941946 0.846834
vt 0.917135 0.984251
vt 0.917135 0.846834
vt 0.764314 0.351455
vt 0.716393 0.984251
vt 0.716392 0.846834
vt 0.764314 0.341779
vn 0.000000 1.000000 0.000000
vn 0.000000 1.000000 0.000000
vn 0.000000 1.000000 0.000000
vn 0.000000 1.000000 0.000000
vn -1.000000 -0.000001 -0.000000
vn -1.000000 -0.000001 -0.000000
vn -1.000000 -0.000001 -0.000000
vn -1.000000 -0.000001 -0.000000
vn 0.000000 0.000000 1.000000
vn 0.000000 0.000000 1.000000
vn 0.000000 0.000000 1.000000
vn 0.000000 0.000000 1.000000
vn 0.000000 -0.142580 0.989783
vn 0.000000 -0.142580 0.989783
vn 0.000000 -0.142580 0.989783
vn 0.000000 -0.142580 0.989783
vn 0.000000 1.000000 0.000000
vn 0.000000 1.000000 0.000000
vn 0.000000 1.000000 0.000000
vn 0.000000 1.000000 0.000000
vn 0.000000 0.000000 -1.000000
vn 0.000000 0.000000 -1.000000
vn 0.000000 0.000000 -1.000000
vn 0.000000 0.000000 -1.000000
vn 0.000000 1.000000 0.000000
vn 0.000000 1.000000 0.000000
vn 0.000000 1.000000 0.000000
vn 0.000000 1.000000 0.000000
vn 0.000000 1.000000 0.000000
vn 0.000000 1.000000 0.000000
vn 0.000000 1.000000 0.000000
vn -1.000000 -0.000001 0.000000
vn -1.000000 -0.000001 -0.000000
vn -1.000000 -0.000001 -0.000000
vn 0.000000 0.000000 1.000000
vn 0.000000 0.000000 1.000000
vn 0.000000 0.000000 1.000000
vn 0.000000 0.000000 1.000000
vn 1.000000 -0.000000 0.000000
vn 1.000000 -0.000000 0.000000
vn 1.000000 -0.000000 0.000000
vn 1.000000 -0.000000 0.000000
vn 0.000000 0.794329 -0.607487
vn 0.000000 0.794329 -0.607487
vn 0.000000 0.794329 -0.607487
vn 0.000000 0.794329 -0.607487
vn -1.000000 0.000000 0.000000
vn -1.000000 0.000000 0.000000
vn -1.000000 0.000000 0.000000
vn -1.000000 0.000000 0.000000
vn -1.000000 -0.000001 0.000000
vn -1.000000 -0.000001 0.000000
vn -1.000000 -0.000001 0.000000
vn -1.000000 -0.000001 0.000000
vn 1.000000 0.000001 0.000000
vn 1.000000 0.000001 0.000000
vn 1.000000 0.000001 0.000000
vn 1.000000 0.000001 0.000000
vn 1.000000 0.000000 0.000000
vn 1.000000 0.000000 0.000000
vn 1.000000 0.000000 0.000000
vn 1.000000 0.000000 0.000000
vn 0.000000 0.827864 0.560929
vn 0.000000 0.827864 0.560929
vn 0.000000 0.827864 0.560929
vn 0.000000 0.827864 0.560929
vn -1.000000 0.000000 0.000000
vn -1.000000 0.000000 0.000000
vn -1.000000 0.000000 0.000000
vn -1.000000 0.000000 0.000000
vn 0.000000 1.000000 0.000000
vn 0.000000 1.000000 0.000000
vn 0.000000 1.000000 0.000000
vn 0.000000 1.000000 0.000000
vn -1.000000 0.000000 0.000000
vn -1.000000 0.000001 0.000000
vn -1.000000 0.000000 0.000000
vn 1.000000 -0.000001 0.000000
vn 1.000000 -0.000000 -0.000000
vn 1.000000 -0.000000 -0.000000
vn 0.000000 1.000000 0.000000
vn 0.000000 1.000000 0.000000
vn 0.000000 1.000000 0.000000
vn 0.000000 1.000000 0.000000
vn 1.000000 -0.000001 -0.000000
vn 1.000000 -0.000001 -0.000000
vn 1.000000 -0.000001 -0.000000
vn 1.000000 -0.000001 -0.000000
vn 0.000000 0.000000 1.000000
vn 0.000000 0.000000 1.000000
vn 0.000000 0.000000 1.000000
vn 0.000000 0.000000 1.000000
vn 0.000000 0.000000 -1.000000
vn 0.000000 0.000000 -1.000000
vn 0.000000 0.000000 -1.000000
vn 0.000000 0.000000 -1.000000
vn 1.000000 -0.000000 -0.000000
vn 1.000000 -0.000000 -0.000000
vn 1.000000 0.000000 -0.000000
vn -1.000000 0.000000 0.000000
vn -1.000000 0.000001 0.000000
vn -1.000000 0.000000 0.000000
vn 0.000000 0.000000 -1.000000
vn 0.000000 0.000000 -1.000000
vn 0.000000 0.000000 -1.000000
vn 0.000000 0.000000 -1.000000
vn 1.000000 -0.000000 -0.000000
vn 1.000000 -0.000000 -0.000000
vn 1.000000 -0.000000 -0.000000
vn 1.000000 -0.000000 -0.000000
vn 0.000000 0.000000 1.000000
vn 0.000000 0.000000 1.000000
vn 0.000000 0.000000 1.000000
vn 0.000000 0.000000 1.000000
vn -1.000000 0.000000 0.000000
vn -1.000000 0.000000 0.000000
vn -1.000000 0.000000 0.000000
vn -1.000000 0.000000 0.000000
vn 0.000000 0.000000 -1.000000
vn 0.000000 0.000000 -1.000000
vn 0.000000 0.000000 -1.000000
vn 0.000000 0.000000 -1.000000
vn 1.000000 0.000000 0.000000
vn 1.000000 0.000000 0.000000
vn 1.000000 0.000000 0.000000
vn 1.000000 0.000000 0.000000
vn 0.000000 1.000000 0.000000
vn 0.000000 1.000000 0.000000
vn 0.000000 1.000000 0.000000
vn 0.000000 1.000000 0.000000
vn -1.000000 0.000000 0.000000
vn -1.000000 0.000000 0.000000
vn -1.000000 0.000000 0.000000
vn -1.000000 0.000000 0.000000
vn 0.000000 -0.478303 -0.878195
vn 0.000000 -0.478303 -0.878195
vn 0.000000 -0.478303 -0.878195
vn 0.000000 -0.478303 -0.878195
vn 0.000000 1.000000 0.000000
vn 0.000000 1.000000 0.000000
vn 0.000000 1.000000 0.000000
vn 1.000000 -0.000001 0.000000
vn 1.000000 -0.000001 -0.000000
vn 1.000000 -0.000001 -0.000000
vn 0.000000 0.000000 1.000000
vn 0.000000 0.000000 1.000000
vn 0.000000 0.000000 1.000000
vn 0.000000 0.000000 1.000000
vn -1.000000 0.000000 0.000000
vn -1.000000 0.000000 0.000000
vn -1.000000 0.000000 0.000000
vn -1.000000 0.000000 0.000000
vn 0.000000 0.794329 -0.607487
vn 0.000000 0.794329 -0.607487
vn 0.000000 0.794329 -0.607487
vn 0.000000 0.794329 -0.607487
vn 1.000000 0.000000 0.000000
vn 1.000000 0.000000 0.000000
vn 1.000000 0.000000 0.000000
vn 1.000000 0.000000 0.000000
vn 1.000000 -0.000001 0.000000
vn 1.000000 -0.000001 0.000000
vn 1.000000 -0.000001 0.000000
vn 1.000000 -0.000001 0.000000
vn -1.000000 0.000001 0.000000
vn -1.000000 0.000001 0.000000
vn -1.000000 0.000001 0.000000
vn -1.000000 0.000001 0.000000
vn -1.000000 0.000000 0.000000
vn -1.000000 0.000000 0.000000
vn -1.000000 0.000000 0.000000
vn -1.000000 0.000000 0.000000
vn 0.000000 0.827864 0.560929
vn 0.000000 0.827864 0.560929
vn 0.000000 0.827864 0.560929
vn 0.000000 0.827864 0.560929
vn 1.000000 0.000000 0.000000
vn 1.000000 0.000000 0.000000
vn 1.000000 0.000000 0.000000
vn 1.000000 0.000000 0.000000
s off
g BridgeRoad BridgeRoad
usemtl lambert4SG
f 10/1/1 9/2/2 11/3/3 12/4/4
f 8/21/5 2/22/6 4/23/7 3/24/8
f 13/27/9 14/26/10 15/33/11 16/34/12
f 6/37/13 5/38/14 39/39/15 40/40/16
f 7/7/17 6/12/18 40/13/19 41/10/20
f 24/41/21 2/42/22 1/43/23 21/44/24
f 1/9/25 7/7/26 41/10/27 21/11/28
f 8/8/29 7/7/30 1/9/31
f 1/25/32 2/22/33 8/21/34
f 13/27/35 16/34/36 17/35/37 18/36/38
f 6/45/39 7/46/40 11/47/41 9/48/42
f 7/7/43 8/8/44 12/4/45 11/3/46
f 8/21/47 3/24/48 10/28/49 12/29/50
f 3/24/51 4/23/52 14/26/53 13/27/54
f 5/51/55 6/45/56 16/50/57 15/52/58
f 6/45/59 9/48/60 17/49/61 16/50/62
f 9/2/63 10/1/64 18/5/65 17/6/66
f 10/28/67 3/24/68 13/27/69 18/30/70
f 19/53/71 29/54/72 28/55/73 20/56/74
f 20/57/75 28/58/76 34/59/77
f 29/65/78 19/66/79 33/67/80
f 44/17/81 46/16/82 45/15/83 43/18/84
f 42/73/85 25/74/86 26/75/87 24/76/88
f 47/79/89 50/84/90 49/85/91 48/80/92
f 34/89/93 28/55/94 29/54/95 33/92/96
f 31/69/97 22/68/98 30/70/99
f 32/60/100 27/64/101 23/61/102
f 30/93/103 27/94/104 32/95/105 31/96/106
f 33/67/107 19/66/108 22/68/109 31/69/110
f 20/56/111 23/102/112 22/103/113 19/53/114
f 34/59/115 32/60/116 23/61/117 20/57/118
f 38/98/119 37/97/120 36/99/121 35/100/122
f 31/69/123 38/71/124 35/72/125 33/67/126
f 33/92/127 35/100/128 36/99/129 34/89/130
f 34/59/131 36/62/132 37/63/133 32/60/134
f 31/96/135 32/95/136 37/97/137 38/98/138
f 42/14/139 21/11/140 41/10/141
f 21/81/142 42/73/143 24/76/144
f 47/79/145 52/87/146 51/88/147 50/84/148
f 40/104/149 43/101/150 45/91/151 41/90/152
f 41/10/153 45/15/154 46/16/155 42/14/156
f 42/73/157 46/77/158 44/78/159 25/74/160
f 25/74/161 47/79/162 48/80/163 26/75/164
f 39/32/165 49/83/166 50/31/167 40/104/168
f 40/104/169 50/31/170 51/86/171 43/101/172
f 43/18/173 51/19/174 52/20/175 44/17/176
f 44/78/177 52/82/178 47/79/179 25/74/180
