# This file uses centimeters as units for non-parametric coordinates.

mtllib HighRoad.mtl
g default
v -6.000004 4.000000 20.000000
v -0.000004 4.000000 20.000000
v -0.000003 4.000000 0.000000
v -6.000004 4.000000 0.000000
v -6.000004 0.000000 20.000000
v -0.000004 0.000000 20.000000
v -6.000000 0.000000 0.000000
v 0.000000 0.000000 0.000000
vt 0.187332 0.918982
vt 0.003903 0.918982
vt 0.003903 0.001834
vt 0.187332 0.001834
vt 0.462476 0.001834
vt 0.645906 0.001834
vt 0.645906 0.918982
vt 0.462476 0.918982
vt 0.850209 0.001834
vt 0.850209 0.276979
vt 0.666780 0.276979
vt 0.666780 0.001834
vt 0.668694 0.567002
vt 0.668694 0.291857
vt 0.852123 0.291857
vt 0.852123 0.567002
vn 0.000000 1.000000 0.000000
vn 0.000000 1.000000 0.000000
vn 0.000000 1.000000 0.000000
vn 0.000000 1.000000 0.000000
vn 0.000000 0.000000 1.000000
vn 0.000000 0.000000 1.000000
vn 0.000000 0.000000 1.000000
vn 0.000000 0.000000 1.000000
vn 0.000000 0.000000 -1.000000
vn 0.000000 0.000000 -1.000000
vn 0.000000 0.000000 -1.000000
vn 0.000000 0.000000 -1.000000
vn 1.000000 0.000000 0.000000
vn 1.000000 0.000000 0.000000
vn 1.000000 0.000000 0.000000
vn 1.000000 0.000000 0.000000
vn -1.000000 -0.000000 -0.000000
vn -1.000000 -0.000000 -0.000000
vn -1.000000 -0.000000 -0.000000
vn -1.000000 -0.000000 -0.000000
s off
g HighRoad
usemtl RoadSegmentMeshSG1
f 1/8/1 2/1/2 3/4/3 4/5/4
f 2/9/5 1/10/6 5/11/7 6/12/8
f 4/13/9 3/14/10 8/15/11 7/16/12
f 2/1/13 6/2/14 8/3/15 3/4/16
f 4/5/17 7/6/18 5/7/19 1/8/20
