# This file uses centimeters as units for non-parametric coordinates.

mtllib SlopeRoad.mtl
g default
v -5.999996 1.000000 -20.000000
v -5.999996 4.000000 0.000000
v -5.999996 0.000000 -20.000000
v -6.000000 0.000000 0.000000
v -5.999998 0.000000 -10.000000
v -5.999996 4.000000 -10.000000
v -5.999998 0.000000 -11.000000
v -5.999996 2.736265 -11.000000
v -5.999998 0.000000 -12.000000
v -5.999996 1.925306 -12.000000
v -5.999998 0.000000 -13.000000
v -5.999996 1.434897 -13.000000
v -5.999998 0.000000 -14.000000
v -5.999996 1.223805 -14.000000
v -5.999998 0.000000 -15.000000
v -5.999996 1.077177 -15.000000
v -5.999996 0.000000 -16.000000
v -5.999996 1.041968 -16.000000
v -5.999996 0.000000 -17.000000
v -5.999996 1.000000 -17.000000
v -0.000004 1.000000 -20.000000
v -0.000004 4.000000 0.000000
v -0.000004 0.000000 -20.000000
v 0.000000 0.000000 0.000000
v -0.000002 0.000000 -10.000000
v -0.000004 4.000000 -10.000000
v -0.000002 0.000000 -11.000000
v -0.000004 2.736265 -11.000000
v -0.000002 0.000000 -12.000000
v -0.000004 1.925306 -12.000000
v -0.000002 0.000000 -13.000000
v -0.000004 1.434897 -13.000000
v -0.000002 0.000000 -14.000000
v -0.000004 1.223805 -14.000000
v -0.000002 0.000000 -15.000000
v -0.000004 1.077177 -15.000000
v -0.000004 0.000000 -16.000000
v -0.000004 1.041968 -16.000000
v -0.000004 0.000000 -17.000000
v -0.000004 1.000000 -17.000000
vt 0.172044 0.393688
vt 0.020643 0.393688
vt 0.020643 0.015187
vt 0.172044 0.015187
vt 0.124211 0.431538
vt 0.020643 0.431538
vt 0.093516 0.469388
vt 0.020643 0.469388
vt 0.074954 0.507238
vt 0.020643 0.507238
vt 0.066964 0.545089
vt 0.020643 0.545089
vt 0.061415 0.582939
vt 0.020643 0.582939
vt 0.060082 0.620789
vt 0.020643 0.620789
vt 0.058493 0.658639
vt 0.020643 0.658639
vt 0.058493 0.772189
vt 0.020643 0.772189
vt 0.572385 0.298994
vt 0.572385 0.017480
vt 0.760061 0.017480
vt 0.760061 0.298994
vt 0.550545 0.393688
vt 0.399144 0.015187
vt 0.399144 0.393688
vt 0.550545 0.015187
vt 0.399144 0.431538
vt 0.172044 0.431538
vt 0.172044 0.469388
vt 0.399144 0.469388
vt 0.172044 0.507238
vt 0.399144 0.507238
vt 0.172044 0.545089
vt 0.399144 0.545089
vt 0.172044 0.582939
vt 0.399144 0.582939
vt 0.172044 0.620789
vt 0.399144 0.620789
vt 0.172044 0.658639
vt 0.399144 0.658639
vt 0.399144 0.772189
vt 0.172044 0.772189
vt 0.767017 0.298994
vt 0.767017 0.017480
vt 0.813936 0.017480
vt 0.813936 0.298994
vt 0.512694 0.772189
vt 0.512694 0.658639
vt 0.550545 0.658639
vt 0.550545 0.772189
vt 0.511106 0.620789
vt 0.550545 0.620789
vt 0.509773 0.582939
vt 0.550545 0.582939
vt 0.504223 0.545089
vt 0.550545 0.545089
vt 0.496234 0.507238
vt 0.550545 0.507238
vt 0.477672 0.469388
vt 0.550545 0.469388
vt 0.446977 0.431538
vt 0.550545 0.431538
vn -1.000000 0.000001 -0.000000
vn -1.000000 0.000001 -0.000000
vn -1.000000 0.000001 -0.000000
vn -1.000000 0.000001 -0.000000
vn -1.000000 0.000001 -0.000000
vn -1.000000 0.000001 -0.000000
vn -1.000000 0.000001 -0.000000
vn -1.000000 0.000001 -0.000000
vn -1.000000 0.000001 -0.000000
vn -1.000000 0.000001 -0.000000
vn -1.000000 0.000001 -0.000000
vn -1.000000 0.000001 -0.000000
vn -1.000000 0.000001 -0.000000
vn -1.000000 0.000001 -0.000000
vn -1.000000 0.000001 -0.000000
vn -1.000000 0.000001 -0.000000
vn -1.000000 0.000001 -0.000000
vn -1.000000 0.000001 -0.000000
vn -1.000000 0.000001 -0.000000
vn -1.000000 0.000001 -0.000000
vn -1.000000 0.000001 -0.000000
vn -1.000000 0.000001 -0.000000
vn -1.000000 0.000001 -0.000000
vn -1.000000 0.000001 -0.000000
vn -1.000000 0.000001 -0.000000
vn -1.000000 0.000001 -0.000000
vn -1.000000 0.000001 -0.000000
vn -1.000000 0.000001 -0.000000
vn -1.000000 0.000001 -0.000000
vn -1.000000 0.000001 -0.000000
vn -1.000000 0.000001 -0.000000
vn -1.000000 0.000000 -0.000000
vn -1.000000 0.000000 -0.000000
vn -1.000000 0.000001 -0.000000
vn -1.000000 0.000000 -0.000001
vn -1.000000 0.000000 -0.000001
vn 0.000000 0.000000 1.000000
vn 0.000000 0.000000 1.000000
vn 0.000000 0.000000 1.000000
vn 0.000000 0.000000 1.000000
vn 0.000000 1.000000 0.000000
vn 0.000000 1.000000 0.000000
vn 0.000000 1.000000 0.000000
vn 0.000000 1.000000 0.000000
vn 0.000000 0.000000 -1.000000
vn 0.000000 0.000000 -1.000000
vn 0.000000 0.000000 -1.000000
vn 0.000000 0.000000 -1.000000
vn 1.000000 0.000001 -0.000000
vn 1.000000 0.000001 -0.000000
vn 1.000000 0.000001 -0.000000
vn 1.000000 0.000001 -0.000000
vn 1.000000 0.000001 -0.000000
vn 1.000000 0.000001 -0.000000
vn 1.000000 0.000001 -0.000000
vn 1.000000 0.000001 -0.000000
vn 1.000000 0.000001 -0.000000
vn 1.000000 0.000001 -0.000000
vn 1.000000 0.000001 -0.000000
vn 1.000000 0.000001 -0.000000
vn 1.000000 0.000001 -0.000000
vn 1.000000 0.000001 -0.000000
vn 1.000000 0.000001 -0.000000
vn 1.000000 0.000001 -0.000000
vn 1.000000 0.000001 -0.000000
vn 1.000000 0.000001 -0.000000
vn 1.000000 0.000001 -0.000000
vn 1.000000 0.000001 -0.000000
vn 1.000000 0.000001 -0.000000
vn 1.000000 0.000001 -0.000000
vn 1.000000 0.000001 -0.000000
vn 1.000000 0.000001 -0.000000
vn 1.000000 0.000000 -0.000000
vn 1.000000 0.000001 -0.000000
vn 1.000000 0.000001 -0.000000
vn 1.000000 0.000001 -0.000000
vn 1.000000 0.000000 -0.000001
vn 1.000000 0.000000 -0.000001
vn 1.000000 0.000001 -0.000000
vn 1.000000 0.000000 -0.000000
vn 1.000000 0.000001 -0.000000
vn 1.000000 0.000001 -0.000000
vn 1.000000 0.000001 -0.000000
vn 1.000000 0.000001 -0.000000
vn 0.000000 0.999121 -0.041931
vn 0.000000 0.999256 -0.038560
vn 0.000000 0.999256 -0.038560
vn 0.000000 0.999121 -0.041931
vn 0.000000 0.999256 -0.038560
vn 0.000000 0.995892 -0.090545
vn 0.000000 0.995892 -0.090545
vn 0.000000 0.999256 -0.038560
vn 0.000000 0.995892 -0.090545
vn 0.000000 0.984378 -0.176066
vn 0.000000 0.984378 -0.176066
vn 0.000000 0.995892 -0.090545
vn 0.000000 0.984378 -0.176066
vn 0.000000 0.943637 -0.330981
vn 0.000000 0.943637 -0.330981
vn 0.000000 0.984378 -0.176066
vn 0.000000 0.943637 -0.330981
vn 0.000000 0.838182 -0.545391
vn 0.000000 0.838182 -0.545391
vn 0.000000 0.943637 -0.330981
vn 0.000000 0.838182 -0.545391
vn 0.000000 0.694028 -0.719948
vn 0.000000 0.694028 -0.719948
vn 0.000000 0.838182 -0.545391
vn 0.000000 1.000000 0.000000
vn 0.000000 1.000000 0.000000
vn 0.000000 1.000000 0.000000
vn 0.000000 1.000000 0.000000
vn 0.000000 0.620529 -0.784184
vn 0.000000 0.620529 -0.784184
vn 0.000000 0.694028 -0.719948
vn 0.000000 0.694028 -0.719948
s off
g SlopeRoad
usemtl lambert3SG
f 6/1/1 5/2/2 4/3/3 2/4/4
f 20/17/5 1/19/6 3/20/7 19/18/8
f 20/17/9 19/18/10 17/16/11 18/15/12
f 18/15/13 17/16/14 15/14/15 16/13/16
f 16/13/17 15/14/18 13/12/19 14/11/20
f 14/11/21 13/12/22 11/10/23 12/9/24
f 12/9/25 11/10/26 9/8/27 10/7/28
f 10/7/29 9/8/30 7/6/31 8/5/32
f 8/5/33 7/6/34 5/2/35 6/1/36
f 4/21/37 24/22/38 22/23/39 2/24/40
f 2/4/41 22/26/42 26/27/43 6/1/44
f 1/45/45 21/46/46 23/47/47 3/48/48
f 21/49/49 40/50/50 39/51/51 23/52/52
f 38/53/53 37/54/54 39/51/55 40/50/56
f 36/55/57 35/56/58 37/54/59 38/53/60
f 34/57/61 33/58/62 35/56/63 36/55/64
f 32/59/65 31/60/66 33/58/67 34/57/68
f 30/61/69 29/62/70 31/60/71 32/59/72
f 28/63/73 27/64/74 29/62/75 30/61/76
f 26/27/77 25/25/78 27/64/79 28/63/80
f 22/26/81 24/28/82 25/25/83 26/27/84
f 20/41/85 18/39/86 38/40/87 40/42/88
f 18/39/89 16/37/90 36/38/91 38/40/92
f 16/37/93 14/35/94 34/36/95 36/38/96
f 14/35/97 12/33/98 32/34/99 34/36/100
f 12/33/101 10/31/102 30/32/103 32/34/104
f 10/31/105 8/30/106 28/29/107 30/32/108
f 20/41/109 40/42/110 21/43/111 1/44/112
f 6/1/113 26/27/114 28/29/115 8/30/116
